<svg width="213" height="46" viewBox="0 0 213 46" fill="none" xmlns="http://www.w3.org/2000/svg">
<g clip-path="url(#clip0_0_109)">
<path d="M2.17486 24.5272L13.9646 4.62089C14.1723 4.27497 14.5424 4.05959 14.9384 4.05959H18.6908C19.0868 4.05959 19.4569 4.26845 19.6646 4.60783L31.3764 24.5207C31.9737 25.5062 33.4864 25.082 33.4864 23.9268V0.0717934C33.4864 0.0717934 33.4864 0.0261067 33.4929 0H0C0 0 0.00649212 0.0456867 0.00649212 0.0717934L0.0649212 23.9464C0.0649212 25.1081 1.59057 25.5258 2.18135 24.5272" fill="#00B8F3"/>
<path d="M32.9475 44.982L17.3664 17.4198C17.1067 16.9564 16.4445 16.9564 16.1848 17.4198L15.8992 17.9224L1.57106 43.272L0.603739 44.982L0.0259399 46.0066H33.5253L32.9475 44.982Z" fill="#8A6A5C"/>
<path d="M78.1651 37.7308L78.1262 22.5367C78.1262 21.7992 77.1588 21.5316 76.7823 22.1647L69.2839 34.8329C69.1541 35.0549 68.9139 35.1854 68.6607 35.1854H66.2716C66.0184 35.1854 65.7846 35.0549 65.6548 34.8329L58.2019 22.5171C57.8188 21.8906 56.858 22.1581 56.858 22.8957V37.7243C56.858 38.1289 56.5334 38.4487 56.1374 38.4487H50.9047C50.5022 38.4487 50.1841 38.1224 50.1841 37.7243V8.26938C50.1841 7.86473 50.5087 7.54492 50.9047 7.54492H55.6569C55.9101 7.54492 56.1438 7.67546 56.2737 7.89736L66.9467 25.7152C67.2259 26.1851 67.9076 26.1851 68.1867 25.7152L78.691 7.90389C78.8208 7.68198 79.061 7.54492 79.3142 7.54492H84.021C84.417 7.54492 84.7416 7.87126 84.7416 8.26938L84.826 37.7308C84.826 38.1354 84.5014 38.4618 84.1054 38.4618H78.8728C78.4767 38.4618 78.1521 38.1354 78.1521 37.7373" fill="#FCF5EE"/>
<path d="M94.6227 7.54492H100.29C100.693 7.54492 101.011 7.87126 101.011 8.26938V37.7308C101.011 38.1354 100.686 38.4552 100.29 38.4552H94.6227C94.2202 38.4552 93.902 38.1289 93.902 37.7308V8.26938C93.902 7.86473 94.2266 7.54492 94.6227 7.54492Z" fill="#FCF5EE"/>
<path d="M138.269 8.26938V37.7308C138.269 38.1354 137.945 38.4552 137.549 38.4552H132.77C132.556 38.4552 132.348 38.3573 132.212 38.1877L118.377 21.2509C117.949 20.7223 117.092 21.029 117.092 21.7143V37.7243C117.092 38.1289 116.767 38.4487 116.371 38.4487H110.788C110.385 38.4487 110.067 38.1224 110.067 37.7243V8.26938C110.067 7.86473 110.392 7.54492 110.788 7.54492H115.612C115.826 7.54492 116.034 7.64282 116.17 7.81252L129.959 24.7427C130.388 25.2714 131.245 24.9646 131.245 24.2793V8.26938C131.245 7.86473 131.569 7.54492 131.965 7.54492H137.549C137.951 7.54492 138.269 7.87126 138.269 8.26938Z" fill="#FCF5EE"/>
<path d="M168.821 22.5171H173.878C174.281 22.5171 174.599 22.8435 174.599 23.2416V34.6894C174.599 34.9244 174.489 35.1397 174.3 35.2768C172.697 36.4385 170.866 37.3327 168.795 37.9723C166.601 38.6511 164.387 38.9905 162.16 38.9905C158.966 38.9905 156.097 38.3052 153.552 36.9346C151.007 35.564 149.007 33.6647 147.553 31.2368C146.105 28.8089 145.378 26.0611 145.378 23.0001C145.378 19.9391 146.105 17.1914 147.553 14.7635C149.001 12.3355 151.013 10.4363 153.591 9.06567C156.168 7.69507 159.07 7.00977 162.29 7.00977C164.984 7.00977 167.432 7.46663 169.626 8.38037C171.587 9.1962 173.268 10.3384 174.664 11.8069C174.943 12.1006 174.93 12.5705 174.632 12.8446L171.1 16.121C170.821 16.3821 170.386 16.3755 170.113 16.1145C168.016 14.1108 165.523 13.1057 162.641 13.1057C160.68 13.1057 158.934 13.5169 157.414 14.3392C155.889 15.1616 154.707 16.3299 153.857 17.831C153.006 19.3321 152.584 21.0552 152.584 23.0001C152.584 24.9451 153.006 26.6224 153.857 28.1236C154.707 29.6247 155.882 30.793 157.395 31.6349C158.901 32.4769 160.622 32.8946 162.556 32.8946C164.491 32.8946 166.14 32.5225 167.672 31.785C167.925 31.661 168.087 31.4065 168.087 31.1258V23.2481C168.087 22.8435 168.412 22.5237 168.808 22.5237" fill="#FCF5EE"/>
<path d="M203.197 31.8372L205.735 38.0114C205.846 38.2856 206.112 38.4618 206.404 38.4618H212.273C212.799 38.4618 213.149 37.9201 212.935 37.4371L199.834 7.97568C199.717 7.71462 199.457 7.54492 199.172 7.54492H193.082C192.797 7.54492 192.537 7.71462 192.42 7.97568L179.358 37.4371C179.144 37.9201 179.494 38.4618 180.02 38.4618H185.714C186.006 38.4618 186.272 38.2856 186.382 38.0114L188.921 31.8372L191.206 26.407L195.413 16.1928C195.66 15.5923 196.504 15.5923 196.75 16.1928L200.957 26.407L203.197 31.8372Z" fill="#FCF5EE"/>
</g>
<defs>
<clipPath id="clip0_0_109">
<rect width="213" height="46" fill="white"/>
</clipPath>
</defs>
</svg>
