<svg width="129" height="41" viewBox="0 0 129 41" fill="none" xmlns="http://www.w3.org/2000/svg">
<path d="M29.4574 29.8572L29.4342 20.0709C29.4342 19.5958 28.8084 19.4219 28.5651 19.8333L23.7096 27.9915C23.6227 28.1363 23.4721 28.2174 23.304 28.2174H21.757C21.5947 28.2174 21.4441 28.1305 21.3572 27.9915L16.5307 20.0593C16.2816 19.6537 15.6616 19.8275 15.6616 20.3026V29.8572C15.6616 30.1179 15.453 30.3265 15.1922 30.3265H11.8027C11.5419 30.3265 11.3333 30.1179 11.3333 29.8572V10.8755C11.3333 10.6148 11.5419 10.4062 11.8027 10.4062H14.8793C15.0416 10.4062 15.198 10.4932 15.2792 10.6322L22.1915 22.1105C22.3769 22.4118 22.8173 22.4118 22.9969 22.1105L29.7992 10.638C29.8861 10.4932 30.0368 10.4062 30.2049 10.4062H33.2526C33.5133 10.4062 33.7219 10.6148 33.7219 10.8755L33.774 29.8572C33.774 30.1179 33.5654 30.3265 33.3047 30.3265H29.9152C29.6544 30.3265 29.4458 30.1179 29.4458 29.8572" fill="white"/>
<path d="M40.1128 10.4062H43.7863C44.047 10.4062 44.2556 10.6148 44.2556 10.8755V29.8572C44.2556 30.1179 44.047 30.3265 43.7863 30.3265H40.1128C39.8521 30.3265 39.6434 30.1179 39.6434 29.8572V10.8755C39.6434 10.6148 39.8521 10.4062 40.1128 10.4062Z" fill="white"/>
<path d="M68.3825 10.8755V29.8572C68.3825 30.1179 68.1738 30.3265 67.9131 30.3265H64.8191C64.68 30.3265 64.5467 30.2627 64.454 30.1527L55.4963 19.2423C55.2182 18.9004 54.6677 19.0974 54.6677 19.5378V29.8514C54.6677 30.1121 54.4591 30.3207 54.1984 30.3207H50.5828C50.3221 30.3207 50.1135 30.1121 50.1135 29.8514V10.8697C50.1135 10.609 50.3221 10.4004 50.5828 10.4004H53.7059C53.8449 10.4004 53.9782 10.4642 54.0709 10.5742L62.9997 21.4789C63.2778 21.8207 63.8282 21.6237 63.8282 21.1833V10.8697C63.8282 10.609 64.0368 10.4004 64.2976 10.4004H67.9131C68.1738 10.4004 68.3825 10.609 68.3825 10.8697" fill="white"/>
<path d="M88.1694 20.0535H91.4431C91.7038 20.0535 91.9124 20.2622 91.9124 20.5229V27.8988C91.9124 28.0495 91.8429 28.1885 91.7212 28.2754C90.684 29.0228 89.4963 29.6022 88.1579 30.0136C86.7325 30.4482 85.3013 30.6683 83.8644 30.6683C81.7959 30.6683 79.936 30.2281 78.2904 29.3474C76.6391 28.4667 75.347 27.244 74.4083 25.6796C73.4697 24.1152 73.0004 22.348 73.0004 20.3722C73.0004 18.3964 73.4697 16.6291 74.4083 15.0647C75.347 13.5003 76.6506 12.2778 78.3193 11.3971C79.9881 10.5164 81.8654 10.076 83.9513 10.076C85.6953 10.076 87.2829 10.3716 88.7025 10.9568C89.9714 11.484 91.0607 12.2198 91.9646 13.1642C92.1442 13.3554 92.1384 13.6568 91.9414 13.8364L89.6527 15.9454C89.4731 16.1135 89.1892 16.1077 89.0154 15.9454C87.6538 14.6534 86.043 14.0045 84.1773 14.0045C82.9084 14.0045 81.7785 14.2709 80.7935 14.7982C79.8085 15.3313 79.0378 16.0788 78.4874 17.0464C77.937 18.014 77.6646 19.1207 77.6646 20.378C77.6646 21.6354 77.937 22.7131 78.4874 23.6807C79.0378 24.6483 79.8026 25.4015 80.7761 25.9403C81.7553 26.4792 82.8678 26.7516 84.1193 26.7516C85.3708 26.7516 86.4428 26.5139 87.4336 26.033C87.5958 25.9519 87.7059 25.7896 87.7059 25.61V20.5344C87.7059 20.2736 87.9144 20.0651 88.1752 20.0651" fill="white"/>
<path d="M110.436 26.0562L112.082 30.0368C112.157 30.2106 112.325 30.3265 112.516 30.3265H116.317C116.659 30.3265 116.885 29.9788 116.746 29.6659L108.258 10.6843C108.182 10.5163 108.014 10.4062 107.829 10.4062H103.883C103.698 10.4062 103.53 10.5163 103.454 10.6843L94.9949 29.6659C94.8558 29.973 95.0818 30.3265 95.4237 30.3265H99.1087C99.2999 30.3265 99.468 30.2106 99.5433 30.0368L101.189 26.0562L102.666 22.5565L105.39 15.9744C105.552 15.5862 106.096 15.5862 106.253 15.9744L108.976 22.5565L110.425 26.0562H110.436Z" fill="white"/>
<path d="M125.843 40.7328H2.27706C1.01973 40.7328 0 39.7131 0 38.4558V2.27706C0 1.01973 1.01973 0 2.27706 0H125.843C127.1 0 128.12 1.01973 128.12 2.27706V38.4558C128.12 39.7131 127.1 40.7328 125.843 40.7328ZM2.27706 1.13563C1.65129 1.13563 1.13563 1.6455 1.13563 2.27706V38.4558C1.13563 39.0815 1.6455 39.5972 2.27706 39.5972H125.843C126.469 39.5972 126.984 39.0873 126.984 38.4558V2.27706C126.984 1.65129 126.474 1.13563 125.843 1.13563H2.27706Z" fill="white"/>
</svg>
